<mxfile host="app.diagrams.net" modified="2024-05-10T09:03:49.027Z" agent="Mozilla/5.0 (Macintosh; Intel Mac OS X 10_15_7) AppleWebKit/537.36 (KHTML, like Gecko) Chrome/124.0.0.0 Safari/537.36" version="22.1.18" etag="mPQXN_ZJwsQHgrGOWsMJ" type="github">
  <diagram name="Page-1" id="3oWlfPOALyme9NTNNofI">
    <mxGraphModel>
      <root>
        <mxCell id="0" />
        <mxCell id="1" parent="0" />
      </root>
    </mxGraphModel>
  </diagram>
</mxfile>
